<?xml version="1.0" standalone="no"?><!DOCTYPE svg PUBLIC "-//W3C//DTD SVG 1.1//EN" "http://www.w3.org/Graphics/SVG/1.1/DTD/svg11.dtd"><svg t="1752482726440" class="icon" viewBox="0 0 1033 1024" version="1.1" xmlns="http://www.w3.org/2000/svg" p-id="1128" xmlns:xlink="http://www.w3.org/1999/xlink" width="201.7578125" height="200"><path d="M277.771792 84.932525H139.027549c-39.718788-0.18101-72.029091 32-75.688081 72.869495l-62.978586 694.988283c-2.029899 21.979798 4.551111 44.127677 18.540606 60.909899 14.118788 17.208889 34.999596 27.410101 57.147475 27.410101h351.521616c23.337374 0 45.149091-11.481212 59.358384-30.72 13.808485-18.618182 19.109495-42.899394 14.648889-66.107475L353.49866 149.591919c-6.490505-37.068283-38.128485-65.448081-75.688081-64.659394h-0.038787zM138.665529 146.721616h139.804444c6.529293-0.142222 12.761212 5.469091 14.338586 14.648889l148.286061 695.169293a22.755556 22.755556 0 0 1-3.84 17.118384c-2.779798 3.801212-6.309495 5.650101-9.709899 5.650101H76.087751a12.531071 12.531071 0 0 1-9.580606-5.042424 21.749657 21.749657 0 0 1-4.589899-15.799596L124.818256 163.361616c0.879192-10.110707 7.49899-16.678788 13.847273-16.64z m661.501414-61.789091H470.224317c-24.488081 0-47.437576 11.571717-62.448485 31.250101a82.98796 82.98796 0 0 0-14.868687 68.098586l55.867475 252.263434c8.158384 36.719192 39.899798 63.069091 76.916363 63.237172h329.929697c24.488081 0 47.437576-11.558788 62.448485-31.198384a82.753939 82.753939 0 0 0 14.907475-68.098586l-55.919192-252.263434c-7.667071-36.486465-39.602424-62.758788-76.890505-63.288889z m-329.942626 61.789091h329.761616c7.68 0.038788 14.829899 5.960404 16.769293 14.868687l55.919192 252.211717c1.357576 5.999192 0.012929 12.282828-3.65899 17.208889-3.10303 4.305455-8.054949 6.891313-13.368889 6.968889H525.884923c-7.68 0-14.778182-5.960404-16.769293-14.829899l-55.867475-252.211717c-1.357576-6.050909 0-12.373333 3.710707-17.338182 3.090101-4.253737 7.990303-6.800808 13.239596-6.878384h0.025859z m426.627879 379.448889H567.63361a79.760808 79.760808 0 0 0-62.758788 28.069495c-15.670303 18.540606-21.76 43.196768-16.45899 66.818586l55.828687 258.572929c8.468687 36.499394 41.32202 62.086465 78.778182 61.336566h329.309091c23.841616 0.452525 46.62303-9.826263 62.047676-28.017778 15.670303-18.540606 21.76-43.248485 16.420202-66.857374l-5.430303-24.100202-0.659394 0.051717-50.669899-234.537373c-8.300606-35.943434-40.339394-61.388283-77.226666-61.349495h0.038788z m-330.627879 61.776162h330.459798c8.300606 0 15.398788 5.611313 17.040808 12.838788l56.979394 264.003232-0.219798 1.900606c-0.581818 2.340202-1.706667 4.512323-3.258182 6.348283a17.985939 17.985939 0 0 1-14.170505 6.180202H622.570175c-8.998788 0.090505-16.329697-5.469091-18.010505-12.929293l-55.776969-258.572929c-1.124848-4.796768 0.090505-9.839192 3.271111-13.588687 3.555556-4.085657 8.753131-6.348283 14.170505-6.180202z m0 0" p-id="1129"></path></svg>