<?xml version="1.0" standalone="no"?><!DOCTYPE svg PUBLIC "-//W3C//DTD SVG 1.1//EN" "http://www.w3.org/Graphics/SVG/1.1/DTD/svg11.dtd"><svg t="1752482729885" class="icon" viewBox="0 0 1024 1024" version="1.1" xmlns="http://www.w3.org/2000/svg" p-id="1279" xmlns:xlink="http://www.w3.org/1999/xlink" width="200" height="200"><path d="M603.88202 374.186667L369.28 608.801616c-12.709495 12.709495-12.709495 33.887677 0 46.597172 6.348283 6.348283 14.829899 9.528889 23.298586 9.528889 8.468687 0 16.950303-3.180606 23.298586-9.528889l234.60202-234.60202c12.709495-12.709495 12.709495-33.887677 0-46.597172-12.709495-12.722424-33.887677-12.722424-46.597172-0.012929z m0 0" p-id="1280"></path><path d="M910.513131 278.328889c15.890101 0 28.599596-12.709495 28.599596-28.069495V115.225859c0-15.877172-12.709495-28.599596-28.599596-28.599596H775.466667C759.576566 86.626263 746.867071 99.335758 746.867071 115.225859v30.72H277.12V115.225859c0-15.877172-12.709495-28.599596-28.599596-28.599596H113.486869C97.596768 86.626263 84.887273 99.335758 84.887273 115.225859v134.516363c0 15.890101 12.709495 28.599596 28.599596 28.599596h32.827474v467.626667H113.486869c-15.890101 0-28.599596 12.709495-28.599596 28.599596v135.046464c0 15.877172 12.709495 28.599596 28.599596 28.599596h135.046464c15.36 0 28.069495-12.709495 28.599596-28.599596V875.183838H746.867071v34.417778c0 15.877172 12.709495 28.599596 28.599596 28.599596h135.046464c15.890101 0 28.599596-12.709495 28.599596-28.599596V774.555152c0-15.890101-12.709495-28.599596-28.599596-28.599596h-34.417777V278.328889h34.417777z m-106.446868-135.033535h77.847272v77.847272h-77.847272v-77.847272z m-661.979798 0h77.847272v77.847272H142.086465v-77.847272zM219.933737 881.00202H142.086465v-77.847273h77.847272v77.847273z m661.979798 0h-77.847272v-77.847273h77.847272v77.847273z m-72.029091-135.046464h-34.417777c-15.890101 0-28.599596 12.709495-28.599596 28.599596v34.417777H277.12v-34.417777c0-15.890101-12.709495-28.599596-28.599596-28.599596H212.512323V278.328889h36.008081c15.36 0 28.069495-12.709495 28.599596-28.069495v-38.128485H746.867071v37.598384c0 15.890101 12.709495 28.599596 28.599596 28.599596h34.417777v467.626667z m0 0" p-id="1281"></path></svg>